<?xml version="1.0" encoding="iso-8859-1"?>
<!-- Uploaded to: SVG Repo, www.svgrepo.com, Generator: SVG Repo Mixer Tools -->
<svg fill="#000000" height="25" width="25" version="1.1" id="Layer_1" xmlns="http://www.w3.org/2000/svg" xmlns:xlink="http://www.w3.org/1999/xlink" 
	 viewBox="0 0 512 512" xml:space="preserve">
<g>
	<g>
		<path d="M405.26,0h-298.52c-18.99,0-34.439,15.449-34.439,34.438v443.125c0,18.989,15.449,34.438,34.438,34.438H405.26
			c18.989,0,34.438-15.449,34.438-34.438V34.438C439.699,15.449,424.25,0,405.26,0z M423.147,477.562
			c0,9.863-8.023,17.885-17.885,17.885H106.741c-9.862,0-17.885-8.023-17.885-17.885V34.438
			c-0.001-9.862,8.022-17.885,17.885-17.885h298.521c9.863,0,17.885,8.023,17.885,17.885V477.562z"/>
	</g>
</g>
<g>
	<g>
		<path d="M357.562,52.264H154.439c-16.471,0-29.871,13.401-29.871,29.871v347.728c0,16.471,13.401,29.87,29.871,29.87h203.123
			c16.471,0,29.871-13.401,29.871-29.87V82.137C387.433,65.665,374.033,52.264,357.562,52.264z M370.881,429.865
			c0,7.344-5.975,13.318-13.319,13.318H154.439c-7.344,0-13.319-5.974-13.319-13.318V82.137c0-7.344,5.975-13.319,13.319-13.319
			h203.123c7.344,0,13.319,5.975,13.319,13.319V429.865z"/>
	</g>
</g>
<g>
	<g>
		<path d="M338.392,98.553c-3.149-3.312-8.388-3.445-11.701-0.299l-13.372,12.703H188.354l-13.372-12.703
			c-3.314-3.149-8.552-3.013-11.7,0.299c-3.148,3.315-3.014,8.553,0.3,11.701l15.768,14.979c1.538,1.461,3.579,2.276,5.701,2.276
			h131.574c2.122,0,4.162-0.814,5.701-2.276l15.768-14.979C341.406,107.107,341.541,101.868,338.392,98.553z"/>
	</g>
</g>
<g>
	<g>
		<path d="M338.392,137.183c-3.149-3.312-8.388-3.446-11.701-0.299l-13.372,12.703H188.354l-13.372-12.703
			c-3.314-3.149-8.552-3.014-11.7,0.299c-3.148,3.315-3.014,8.553,0.3,11.701l15.768,14.979c1.538,1.461,3.579,2.276,5.701,2.276
			h131.574c2.122,0,4.162-0.814,5.701-2.276l15.768-14.979C341.406,145.736,341.541,140.498,338.392,137.183z"/>
	</g>
</g>
<g>
	<g>
		<path d="M338.392,175.814c-3.149-3.313-8.388-3.446-11.701-0.299l-13.372,12.703H188.354l-13.372-12.703
			c-3.314-3.149-8.552-3.014-11.7,0.299c-3.148,3.315-3.014,8.553,0.3,11.701l15.768,14.979c1.538,1.461,3.579,2.276,5.701,2.276
			h131.574c2.122,0,4.162-0.814,5.701-2.276l15.768-14.979C341.406,184.367,341.541,179.129,338.392,175.814z"/>
	</g>
</g>
<g>
	<g>
		<path d="M203.97,233.155c-23.691,0-42.964,19.275-42.964,42.965c0,23.691,19.273,42.964,42.964,42.964
			c23.691,0,42.964-19.273,42.964-42.964S227.661,233.155,203.97,233.155z M203.97,302.531c-14.564,0-26.412-11.848-26.412-26.412
			c0-14.564,11.848-26.413,26.412-26.413c14.564,0,26.412,11.848,26.412,26.413C230.382,290.683,218.534,302.531,203.97,302.531z"/>
	</g>
</g>
<g>
	<g>
		<circle cx="203.969" cy="276.114" r="14.036"/>
	</g>
</g>
</svg>